<?xml version="1.0" encoding="utf-8"?>
<!-- Generator: Adobe Illustrator 18.1.1, SVG Export Plug-In . SVG Version: 6.00 Build 0)  -->
<svg version="1.1" id="Layer_1" xmlns="http://www.w3.org/2000/svg" xmlns:xlink="http://www.w3.org/1999/xlink" x="0px" y="0px"
	 viewBox="4.6 1.6 400 50" enable-background="new 4.6 1.6 400 50" xml:space="preserve">
<g>
	<path fill="#FFBF00" d="M71.4,10.2c0-0.3,0.3-0.7,0.7-0.7H87c0.4,0,0.7,0.3,0.7,0.7v4c0,0.3-0.3,0.7-0.7,0.7H77V20h8.2
		c0.3,0,0.7,0.3,0.7,0.7v4c0,0.3-0.3,0.7-0.7,0.7H77v8.8c0,0.3-0.3,0.7-0.7,0.7h-4.2c-0.4,0-0.7-0.3-0.7-0.7L71.4,10.2L71.4,10.2z"
		/>
	<path fill="#FFBF00" d="M99.4,10.2c0-0.3,0.3-0.7,0.7-0.7h4.3c0.3,0,0.7,0.3,0.7,0.7v19.2h8.5c0.4,0,0.7,0.3,0.7,0.7v4
		c0,0.3-0.3,0.7-0.7,0.7h-13.5c-0.4,0-0.7-0.3-0.7-0.7L99.4,10.2L99.4,10.2z"/>
	<path fill="#FFBF00" d="M157.1,10.2c0-0.3,0.3-0.7,0.7-0.7h10.8c4.3,0,7.8,3.5,7.8,7.8c0,3.3-2.2,6-5.3,7.3l4.9,9.1
		c0.2,0.5,0,1-0.6,1h-4.8c-0.3,0-0.5-0.2-0.6-0.3l-4.8-9.5h-2.5V34c0,0.3-0.3,0.7-0.7,0.7h-4.3c-0.4,0-0.7-0.3-0.7-0.7L157.1,10.2
		L157.1,10.2z M168,20.3c1.5,0,2.7-1.4,2.7-2.9s-1.3-2.7-2.7-2.7h-5.3v5.6H168z"/>
	<path fill="#FFBF00" d="M186.3,10.2c0-0.3,0.3-0.7,0.7-0.7h14.9c0.4,0,0.7,0.3,0.7,0.7v4c0,0.3-0.3,0.7-0.7,0.7h-10v4.5h8.2
		c0.3,0,0.7,0.3,0.7,0.7v4c0,0.4-0.3,0.7-0.7,0.7h-8.2v4.9h10c0.4,0,0.7,0.3,0.7,0.7v4c0,0.3-0.3,0.7-0.7,0.7H187
		c-0.4,0-0.7-0.3-0.7-0.7V10.2z"/>
	<path fill="#FFBF00" d="M147.6,34.1L136.4,9.9c-0.1-0.2-0.3-0.4-0.6-0.4h-0.3c-0.2,0-0.5,0.2-0.6,0.4l-9.2,19.9l-2,4.4c-0.2,0.5,0.1,0.9,0.6,0.9h4
		h0.6l-4.1,9.5c-0.2,0.4-0.3,0.9-0.3,0.9c-0.2,0.5,0.4,1,0.9,0.5l13.5-14.7c0.2-0.2,0.2-0.5,0.1-0.7l-0.2-0.3
		c-0.1-0.2-0.3-0.4-0.6-0.4h-6.7l1.5-3.4l2.7-5.9h0.1l2.2,4.7l0.6,1.3l2.5,5.5l1,2.2c0.3,0.7,0.6,0.9,1.3,0.9h4
		C147.6,35.1,147.9,34.6,147.6,34.1z"/>
	<path d="M212.7,22.1c0-3.5,1.2-6.4,3.5-8.7c2.3-2.3,5.1-3.4,8.3-3.4c3.5,0,6.5,1.2,8.7,3.4c2.3,2.3,3.4,5.2,3.4,8.7
		c0,3.5-1.2,6.4-3.4,8.7c-2.3,2.3-5.1,3.4-8.6,3.4c-3.4,0-6.3-1.2-8.5-3.4C213.8,28.5,212.7,25.6,212.7,22.1z M224.7,14.7
		c-2-0.1-3.6,0.6-4.8,2c-1.2,1.4-1.8,3.3-1.8,5.5c0,2.1,0.6,3.8,1.9,5.2c1.2,1.4,2.8,2.1,4.7,2.1c2,0,3.6-0.7,4.8-2
		c1.2-1.4,1.9-3.2,1.9-5.4c0-2.2-0.6-4-1.8-5.3C228.2,15.4,226.6,14.7,224.7,14.7z"/>
	<path fill="#FFBF00" stroke="#FFBF00" stroke-miterlimit="10" d="M212.7,22.1c0-3.5,1.2-6.4,3.5-8.7c2.3-2.3,5.1-3.4,8.3-3.4
		c3.5,0,6.5,1.2,8.7,3.4c2.3,2.3,3.4,5.2,3.4,8.7c0,3.5-1.2,6.4-3.4,8.7c-2.3,2.3-5.1,3.4-8.6,3.4c-3.4,0-6.3-1.2-8.5-3.4
		C213.8,28.5,212.7,25.6,212.7,22.1z M224.7,14.7c-2-0.1-3.6,0.6-4.8,2c-1.2,1.4-1.8,3.3-1.8,5.5c0,2.1,0.6,3.8,1.9,5.2
		c1.2,1.4,2.8,2.1,4.7,2.1c2,0,3.6-0.7,4.8-2c1.2-1.4,1.9-3.2,1.9-5.4c0-2.2-0.6-4-1.8-5.3C228.2,15.4,226.6,14.7,224.7,14.7z"/>
	<path d="M243.8,18.4v1.9c1.6-1.5,3.3-2.2,4.9-2.2c1.5,0,2.7,0.6,3.7,1.8c1,1.2,1.5,2.8,1.5,4.7v9.4h-4.7v-8.7
		c0-0.9-0.2-1.6-0.8-2.3c-0.5-0.6-1.1-0.9-1.8-0.9c-0.9,0-1.5,0.4-2.1,1.2c-0.5,0.8-0.8,1.8-0.8,3v7.7h-4.7V18.3L243.8,18.4
		L243.8,18.4z"/>
	<path fill="#FFBF00" stroke="#FFBF00" stroke-miterlimit="10" d="M243.8,18.4v1.9c1.6-1.5,3.3-2.2,4.9-2.2c1.5,0,2.7,0.6,3.7,1.8
		c1,1.2,1.5,2.8,1.5,4.7v9.4h-4.7v-8.7c0-0.9-0.2-1.6-0.8-2.3c-0.5-0.6-1.1-0.9-1.8-0.9c-0.9,0-1.5,0.4-2.1,1.2
		c-0.5,0.8-0.8,1.8-0.8,3v7.7h-4.7V18.3L243.8,18.4L243.8,18.4z"/>
	<path d="M282.5,11.5v5.8c-2.6-1.6-4.8-2.3-6.7-2.3c-1.9,0-3.5,0.6-4.7,2c-1.2,1.3-1.7,3.1-1.7,5.3c0,2.1,0.6,3.8,1.8,5.1
		c1.2,1.3,2.8,1.9,4.9,1.9c1.8,0,3.9-0.7,6.4-2.2v5.8c-2.8,0.9-5.1,1.4-7,1.4c-3.2,0-5.9-1.2-8.1-3.5c-2.2-2.3-3.4-5.2-3.4-8.5
		c0-3.4,1.2-6.3,3.4-8.7c2.3-2.4,5.1-3.5,8.3-3.5C277.8,9.9,280.1,10.4,282.5,11.5z"/>
	<path fill="#FFBF00" stroke="#FFBF00" stroke-miterlimit="10" d="M282.5,11.5v5.8c-2.6-1.6-4.8-2.3-6.7-2.3c-1.9,0-3.5,0.6-4.7,2
		c-1.2,1.3-1.7,3.1-1.7,5.3c0,2.1,0.6,3.8,1.8,5.1c1.2,1.3,2.8,1.9,4.9,1.9c1.8,0,3.9-0.7,6.4-2.2v5.8c-2.8,0.9-5.1,1.4-7,1.4
		c-3.2,0-5.9-1.2-8.1-3.5c-2.2-2.3-3.4-5.2-3.4-8.5c0-3.4,1.2-6.3,3.4-8.7c2.3-2.4,5.1-3.5,8.3-3.5C277.8,9.9,280.1,10.4,282.5,11.5
		z"/>
	<path d="M284.6,9.8h4.7v10.4c0.9-0.7,1.6-1.2,2.3-1.6c0.7-0.3,1.6-0.5,2.5-0.5c1.6,0,2.9,0.6,3.8,1.7s1.4,2.8,1.4,4.9v9.1h-4.7
		v-8.3c0-1-0.2-1.9-0.8-2.5s-1.2-1-1.9-1c-0.9,0-1.6,0.4-2.1,1.2c-0.5,0.8-0.6,2-0.6,3.7v7h-4.8V9.8z"/>
	<path fill="#FFBF00" stroke="#FFBF00" stroke-miterlimit="10" d="M284.6,9.8h4.7v10.4c0.9-0.7,1.6-1.2,2.3-1.6
		c0.7-0.3,1.6-0.5,2.5-0.5c1.6,0,2.9,0.6,3.8,1.7s1.4,2.8,1.4,4.9v9.1h-4.7v-8.3c0-1-0.2-1.9-0.8-2.5s-1.2-1-1.9-1
		c-0.9,0-1.6,0.4-2.1,1.2c-0.5,0.8-0.6,2-0.6,3.7v7h-4.8V9.8z"/>
	<path d="M312.4,33.9v-2.7h-0.1c-0.7,1-1.5,1.8-2.2,2.3s-1.6,0.7-2.7,0.7c-1.8,0-3.4-0.8-4.7-2.3c-1.3-1.6-1.9-3.5-1.9-5.7
		s0.7-4.1,2-5.7c1.3-1.6,3-2.4,4.8-2.4c0.9,0,1.7,0.2,2.4,0.6c0.7,0.4,1.5,1,2.3,1.9v-2.2h4.7V34L312.4,33.9L312.4,33.9z M309,22.7
		c-0.9,0-1.7,0.3-2.3,1.1s-0.9,1.6-0.9,2.7c0,1,0.3,1.9,0.9,2.5c0.6,0.6,1.3,0.9,2.3,0.9c0.9,0,1.7-0.3,2.3-1.1s1-1.6,1-2.7
		c0-1-0.3-1.8-1-2.5C310.7,23,309.9,22.7,309,22.7z"/>
	<path fill="#FFBF00" stroke="#FFBF00" stroke-miterlimit="10" d="M312.4,33.9v-2.7h-0.1c-0.7,1-1.5,1.8-2.2,2.3s-1.6,0.7-2.7,0.7
		c-1.8,0-3.4-0.8-4.7-2.3c-1.3-1.6-1.9-3.5-1.9-5.7s0.7-4.1,2-5.7c1.3-1.6,3-2.4,4.8-2.4c0.9,0,1.7,0.2,2.4,0.6
		c0.7,0.4,1.5,1,2.3,1.9v-2.2h4.7V34L312.4,33.9L312.4,33.9z M309,22.7c-0.9,0-1.7,0.3-2.3,1.1s-0.9,1.6-0.9,2.7
		c0,1,0.3,1.9,0.9,2.5c0.6,0.6,1.3,0.9,2.3,0.9c0.9,0,1.7-0.3,2.3-1.1s1-1.6,1-2.7c0-1-0.3-1.8-1-2.5C310.7,23,309.9,22.7,309,22.7z
		"/>
	<rect x="320" y="9.8" width="4.7" height="24.1"/>
	<rect x="320" y="9.8" fill="#FFBF00" stroke="#FFBF00" stroke-miterlimit="10" width="4.7" height="24.1"/>
	<rect x="327.7" y="9.8" width="4.7" height="24.1"/>
	<rect x="327.7" y="9.8" fill="#FFBF00" stroke="#FFBF00" stroke-miterlimit="10" width="4.7" height="24.1"/>
	<path d="M349.8,27.3h-11c0.1,1,0.4,1.8,1,2.4c0.6,0.6,1.3,0.9,2.1,0.9c1.4,0,2.6-0.6,3.4-1.9l4.2,1.4c-1.6,2.7-4,4.1-7.4,4.1
		c-2.4,0-4.4-0.8-5.8-2.2s-2.2-3.5-2.2-6c0-2.3,0.8-4.1,2.3-5.7c1.5-1.5,3.4-2.3,5.6-2.3s4.1,0.8,5.6,2.4c1.5,1.6,2.3,3.6,2.3,6v0.8
		H349.8z M338.7,24.1h6.3c-0.4-1.9-1.5-2.9-3-2.9c-0.9,0-1.6,0.2-2.2,0.8C339.2,22.5,338.8,23.2,338.7,24.1z"/>
	<path fill="#FFBF00" stroke="#FFBF00" stroke-miterlimit="10" d="M349.8,27.3h-11c0.1,1,0.4,1.8,1,2.4c0.6,0.6,1.3,0.9,2.1,0.9
		c1.4,0,2.6-0.6,3.4-1.9l4.2,1.4c-1.6,2.7-4,4.1-7.4,4.1c-2.4,0-4.4-0.8-5.8-2.2s-2.2-3.5-2.2-6c0-2.3,0.8-4.1,2.3-5.7
		c1.5-1.5,3.4-2.3,5.6-2.3s4.1,0.8,5.6,2.4c1.5,1.6,2.3,3.6,2.3,6v0.8H349.8z M338.7,24.1h6.3c-0.4-1.9-1.5-2.9-3-2.9
		c-0.9,0-1.6,0.2-2.2,0.8C339.2,22.5,338.8,23.2,338.7,24.1z"/>
	<path d="M356.1,18.4v1.9c1.6-1.5,3.3-2.2,4.9-2.2c1.5,0,2.7,0.6,3.7,1.8c1,1.2,1.5,2.8,1.5,4.7v9.4h-4.7v-8.7
		c0-0.9-0.2-1.6-0.8-2.3c-0.5-0.6-1.1-0.9-1.8-0.9c-0.9,0-1.5,0.4-2.1,1.2c-0.5,0.8-0.8,1.8-0.8,3v7.7h-4.7V18.3L356.1,18.4
		L356.1,18.4z"/>
	<path fill="#FFBF00" stroke="#FFBF00" stroke-miterlimit="10" d="M356.1,18.4v1.9c1.6-1.5,3.3-2.2,4.9-2.2c1.5,0,2.7,0.6,3.7,1.8
		c1,1.2,1.5,2.8,1.5,4.7v9.4h-4.7v-8.7c0-0.9-0.2-1.6-0.8-2.3c-0.5-0.6-1.1-0.9-1.8-0.9c-0.9,0-1.5,0.4-2.1,1.2
		c-0.5,0.8-0.8,1.8-0.8,3v7.7h-4.7V18.3L356.1,18.4L356.1,18.4z"/>
	<path d="M379.3,33v-1.8c-1.4,1.7-3,2.6-4.8,2.6c-2,0-3.6-0.8-4.9-2.3s-2-3.4-2-5.6c0-2.2,0.7-4.1,2-5.6c1.3-1.5,3-2.3,4.9-2.3
		c1.6,0,3.2,0.9,4.7,2.6v-2.2h4.6v15.7c0,0.9-0.3,1.9-0.8,3c-0.5,1.1-1.5,2-2.8,2.5c-1.3,0.5-2.8,0.8-4.6,0.8
		c-2.2,0-3.9-0.4-5.2-1.2c-1.3-0.8-2.2-2.2-2.8-4.1h5.2c1,1.4,2.1,2.1,3.3,2.1c0.9,0,1.7-0.4,2.3-1.2C379,35.3,379.3,34.3,379.3,33z
		 M372.6,26.1c0,0.8,0.3,1.6,1,2.3c0.7,0.8,1.5,1.1,2.4,1.1c0.9,0,1.7-0.3,2.3-1s1-1.6,1-2.6s-0.3-1.9-0.9-2.6s-1.4-1-2.4-1
		c-1,0-1.8,0.3-2.4,1C372.9,24,372.6,24.9,372.6,26.1z"/>
	<path fill="#FFBF00" stroke="#FFBF00" stroke-miterlimit="10" d="M379.3,33v-1.8c-1.4,1.7-3,2.6-4.8,2.6c-2,0-3.6-0.8-4.9-2.3
		s-2-3.4-2-5.6c0-2.2,0.7-4.1,2-5.6c1.3-1.5,3-2.3,4.9-2.3c1.6,0,3.2,0.9,4.7,2.6v-2.2h4.6v15.7c0,0.9-0.3,1.9-0.8,3
		c-0.5,1.1-1.5,2-2.8,2.5c-1.3,0.5-2.8,0.8-4.6,0.8c-2.2,0-3.9-0.4-5.2-1.2c-1.3-0.8-2.2-2.2-2.8-4.1h5.2c1,1.4,2.1,2.1,3.3,2.1
		c0.9,0,1.7-0.4,2.3-1.2C379,35.3,379.3,34.3,379.3,33z M372.6,26.1c0,0.8,0.3,1.6,1,2.3c0.7,0.8,1.5,1.1,2.4,1.1
		c0.9,0,1.7-0.3,2.3-1s1-1.6,1-2.6s-0.3-1.9-0.9-2.6s-1.4-1-2.4-1c-1,0-1.8,0.3-2.4,1C372.9,24,372.6,24.9,372.6,26.1z"/>
	<path d="M401.1,27.3H390c0.1,1,0.4,1.8,1,2.4s1.3,0.9,2.1,0.9c1.4,0,2.6-0.6,3.4-1.9l4.2,1.4c-1.6,2.7-4,4.1-7.4,4.1
		c-2.4,0-4.4-0.8-5.8-2.2s-2.2-3.5-2.2-6c0-2.3,0.8-4.1,2.3-5.7c1.5-1.5,3.4-2.3,5.6-2.3s4.1,0.8,5.6,2.4c1.5,1.6,2.3,3.6,2.3,6
		L401.1,27.3L401.1,27.3z M390.1,24.1h6.3c-0.4-1.9-1.5-2.9-3-2.9c-0.9,0-1.6,0.2-2.2,0.8S390.2,23.2,390.1,24.1z"/>
	<path fill="#FFBF00" stroke="#FFBF00" stroke-miterlimit="10" d="M401.1,27.3H390c0.1,1,0.4,1.8,1,2.4s1.3,0.9,2.1,0.9
		c1.4,0,2.6-0.6,3.4-1.9l4.2,1.4c-1.6,2.7-4,4.1-7.4,4.1c-2.4,0-4.4-0.8-5.8-2.2s-2.2-3.5-2.2-6c0-2.3,0.8-4.1,2.3-5.7
		c1.5-1.5,3.4-2.3,5.6-2.3s4.1,0.8,5.6,2.4c1.5,1.6,2.3,3.6,2.3,6L401.1,27.3L401.1,27.3z M390.1,24.1h6.3c-0.4-1.9-1.5-2.9-3-2.9
		c-0.9,0-1.6,0.2-2.2,0.8S390.2,23.2,390.1,24.1z"/>
	<polygon points="8.7,10.2 24.6,10.2 24.6,15.3 19.2,15.3 19.2,33.9 14.1,33.9 14.1,15.3 8.6,15.3 8.6,10.2 	"/>
	<polygon fill="#FFBF00" stroke="#FFBF00" stroke-miterlimit="10" points="8.7,10.2 24.6,10.2 24.6,15.3 19.2,15.3 19.2,33.9 
		14.1,33.9 14.1,15.3 8.6,15.3 8.6,10.2 	"/>
	<path d="M26.4,9.8h4.7v10.4c0.9-0.7,1.6-1.2,2.3-1.6c0.7-0.3,1.6-0.5,2.5-0.5c1.6,0,2.9,0.6,3.8,1.7c0.9,1.2,1.4,2.8,1.4,4.9v9.1
		h-4.7v-8.3c0-1-0.2-1.9-0.8-2.5c-0.5-0.6-1.2-1-1.9-1c-0.9,0-1.6,0.4-2.1,1.2c-0.5,0.8-0.6,2-0.6,3.7v7h-4.7L26.4,9.8L26.4,9.8z"/>
	<path fill="#FFBF00" stroke="#FFBF00" stroke-miterlimit="10" d="M26.4,9.8h4.7v10.4c0.9-0.7,1.6-1.2,2.3-1.6c0.7-0.3,1.6-0.5,2.5-0.5
		c1.6,0,2.9,0.6,3.8,1.7c0.9,1.2,1.4,2.8,1.4,4.9v9.1h-4.7v-8.3c0-1-0.2-1.9-0.8-2.5c-0.5-0.6-1.2-1-1.9-1c-0.9,0-1.6,0.4-2.1,1.2
		c-0.5,0.8-0.6,2-0.6,3.7v7h-4.7L26.4,9.8L26.4,9.8z"/>
	<path d="M58.3,27.3H47.2c0.1,1,0.4,1.8,1,2.4c0.6,0.6,1.3,0.9,2.1,0.9c1.4,0,2.6-0.6,3.4-1.9l4.2,1.4c-1.6,2.7-4,4.1-7.4,4.1
		c-2.4,0-4.4-0.8-5.8-2.2c-1.4-1.5-2.2-3.5-2.2-6c0-2.3,0.8-4.1,2.3-5.7c1.5-1.5,3.4-2.3,5.6-2.3s4.1,0.8,5.6,2.4
		c1.5,1.6,2.3,3.6,2.3,6L58.3,27.3L58.3,27.3z M47.2,24.1h6.3c-0.4-1.9-1.5-2.9-3-2.9c-0.9,0-1.6,0.2-2.2,0.8S47.4,23.2,47.2,24.1z"
		/>
	<path fill="#FFBF00" stroke="#FFBF00" stroke-miterlimit="10" d="M58.3,27.3H47.2c0.1,1,0.4,1.8,1,2.4c0.6,0.6,1.3,0.9,2.1,0.9
		c1.4,0,2.6-0.6,3.4-1.9l4.2,1.4c-1.6,2.7-4,4.1-7.4,4.1c-2.4,0-4.4-0.8-5.8-2.2c-1.4-1.5-2.2-3.5-2.2-6c0-2.3,0.8-4.1,2.3-5.7
		c1.5-1.5,3.4-2.3,5.6-2.3s4.1,0.8,5.6,2.4c1.5,1.6,2.3,3.6,2.3,6L58.3,27.3L58.3,27.3z M47.2,24.1h6.3c-0.4-1.9-1.5-2.9-3-2.9
		c-0.9,0-1.6,0.2-2.2,0.8S47.4,23.2,47.2,24.1z"/>
</g>
</svg>
